<svg height="512pt" viewBox="0 -44 512 511" width="512pt" xmlns="http://www.w3.org/2000/svg"><g fill-rule="evenodd"><path d="m99.4375 10.5c49.398438 0 89.441406 40.042969 89.441406 89.4375 0 12.789062-2.691406 24.949219-7.523437 35.949219l-81.917969 164.066406-81.914062-164.066406c-4.835938-11-7.523438-23.160157-7.523438-35.949219 0-49.394531 40.042969-89.4375 89.4375-89.4375zm0 0" fill="#ff5d5d"/><path d="m412.558594 10.5c49.398437 0 89.441406 40.042969 89.441406 89.4375 0 12.789062-2.691406 24.949219-7.523438 35.949219l-81.917968 164.066406-81.914063-164.066406c-4.835937-11-7.523437-23.160157-7.523437-35.949219 0-49.394531 40.042968-89.4375 89.4375-89.4375zm0 0" fill="#ff5d5d"/><path d="m99.4375 143.921875c24.226562 0 43.984375-19.757813 43.984375-43.984375 0-24.222656-19.757813-43.980469-43.984375-43.980469-24.222656 0-43.984375 19.757813-43.984375 43.980469 0 24.226562 19.761719 43.984375 43.984375 43.984375zm0 0" fill="#a0e557"/><path d="m412.558594 143.921875c24.226562 0 43.984375-19.757813 43.984375-43.984375 0-24.222656-19.757813-43.980469-43.984375-43.980469-24.222656 0-43.984375 19.757813-43.984375 43.980469 0 24.226562 19.761719 43.984375 43.984375 43.984375zm0 0" fill="#a0e557"/><path d="m99.4375 412.84375c18.488281 0 33.566406-15.078125 33.566406-33.566406 0-18.488282-15.078125-33.566406-33.566406-33.566406s-33.566406 15.078124-33.566406 33.566406c0 18.488281 15.078125 33.566406 33.566406 33.566406zm0 0" fill="#39ddd2"/><path d="m412.558594 412.84375c18.488281 0 33.570312-15.078125 33.570312-33.566406 0-18.488282-15.082031-33.566406-33.570312-33.566406-18.488282 0-33.566406 15.078124-33.566406 33.566406 0 18.488281 15.078124 33.566406 33.566406 33.566406zm0 0" fill="#39ddd2"/></g><path d="m99.4375 309.953125c-3.789062 0-7.253906-2.140625-8.945312-5.53125l-81.914063-164.066406c-.074219-.148438-.144531-.296875-.207031-.445313-5.554688-12.636718-8.371094-26.085937-8.371094-39.972656 0-54.828125 44.609375-99.4375 99.4375-99.4375 54.832031 0 99.441406 44.609375 99.441406 99.4375 0 13.886719-2.816406 27.335938-8.371094 39.972656-.066406.148438-.136718.296875-.207031.445313l-81.914062 164.066406c-1.695313 3.390625-5.15625 5.53125-8.949219 5.53125zm-72.855469-178.308594 72.855469 145.925781 72.859375-145.925781c4.367187-10.019531 6.582031-20.6875 6.582031-31.707031 0-43.800781-35.636718-79.4375-79.441406-79.4375-43.800781 0-79.4375 35.636719-79.4375 79.4375 0 11.019531 2.214844 21.683594 6.582031 31.707031zm0 0"/><path d="m412.558594 309.953125c-3.789063 0-7.253906-2.140625-8.945313-5.53125l-81.914062-164.066406c-.074219-.148438-.144531-.296875-.207031-.445313-5.554688-12.636718-8.371094-26.085937-8.371094-39.972656 0-54.828125 44.605468-99.4375 99.4375-99.4375 54.832031 0 99.441406 44.609375 99.441406 99.4375 0 13.886719-2.816406 27.335938-8.371094 39.972656-.066406.148438-.136718.300782-.207031.445313l-81.914063 164.066406c-1.695312 3.390625-5.15625 5.53125-8.949218 5.53125zm-72.855469-178.308594 72.855469 145.925781 72.855468-145.925781c4.371094-10.019531 6.585938-20.6875 6.585938-31.707031 0-43.800781-35.636719-79.4375-79.441406-79.4375-43.800782 0-79.4375 35.636719-79.4375 79.4375 0 11.015625 2.214844 21.683594 6.582031 31.707031zm0 0"/><path d="m99.4375 153.921875c-29.765625 0-53.984375-24.21875-53.984375-53.984375s24.21875-53.980469 53.984375-53.980469 53.984375 24.214844 53.984375 53.980469-24.214844 53.984375-53.984375 53.984375zm0-87.96875c-18.738281 0-33.984375 15.246094-33.984375 33.984375s15.246094 33.984375 33.984375 33.984375 33.984375-15.246094 33.984375-33.984375-15.242187-33.984375-33.984375-33.984375zm0 0"/><path d="m412.558594 153.921875c-29.765625 0-53.984375-24.21875-53.984375-53.984375s24.21875-53.980469 53.984375-53.980469 53.984375 24.214844 53.984375 53.980469-24.214844 53.984375-53.984375 53.984375zm0-87.96875c-18.738282 0-33.984375 15.246094-33.984375 33.984375s15.246093 33.984375 33.984375 33.984375c18.738281 0 33.984375-15.246094 33.984375-33.984375s-15.242188-33.984375-33.984375-33.984375zm0 0"/><path d="m99.4375 422.84375c-24.019531 0-43.566406-19.542969-43.566406-43.566406 0-24.019532 19.546875-43.566406 43.566406-43.566406 24.023438 0 43.566406 19.546874 43.566406 43.566406.003906 24.023437-19.542968 43.566406-43.566406 43.566406zm0-67.132812c-12.992188 0-23.566406 10.570312-23.566406 23.566406 0 12.992187 10.574218 23.566406 23.566406 23.566406 12.996094 0 23.566406-10.574219 23.566406-23.566406.003906-12.996094-10.570312-23.566406-23.566406-23.566406zm0 0"/><path d="m412.558594 422.84375c-24.019532 0-43.566406-19.542969-43.566406-43.566406 0-24.019532 19.546874-43.566406 43.566406-43.566406 24.023437 0 43.570312 19.546874 43.570312 43.566406 0 24.023437-19.546875 43.566406-43.570312 43.566406zm0-67.132812c-12.992188 0-23.566406 10.570312-23.566406 23.566406 0 12.992187 10.574218 23.566406 23.566406 23.566406 12.996094 0 23.570312-10.574219 23.570312-23.566406 0-12.996094-10.574218-23.566406-23.570312-23.566406zm0 0"/><path d="m378.992188 389.277344h-82.992188c-5.523438 0-10-4.476563-10-10 0-5.523438 4.476562-10 10-10h82.992188c5.523437 0 10 4.476562 10 10 0 5.523437-4.476563 10-10 10zm-162.992188 0h-82.992188c-5.523437 0-10-4.476563-10-10 0-5.523438 4.476563-10 10-10h82.992188c5.523438 0 10 4.476562 10 10 0 5.523437-4.476562 10-10 10zm0 0"/><path d="m256 389.277344c5.507812 0 10-4.492188 10-10 0-5.507813-4.492188-10-10-10s-10 4.492187-10 10c0 5.507812 4.492188 10 10 10zm0 0" fill-rule="evenodd"/></svg>